<svg xmlns="http://www.w3.org/2000/svg" xmlns:xlink="http://www.w3.org/1999/xlink" width="250" height="250" viewBox="0 0 250 250">
    <defs>
        <path id="a" d="M.402.39h29.231v74.194H.402V.39z"/>
    </defs>
    <g fill="none" fill-rule="evenodd">
        <circle cx="125" cy="125" r="125" fill="#FFF"/>
        <path fill="#222" d="M43.449 139.161a155.374 155.374 0 0 0-4.457 11.07 139.54 139.54 0 0 0-3.373 10.72c-.921 3.438-1.636 6.661-2.139 9.667-.503 3.007-.757 5.643-.757 7.915 0 .568.035 1.185.103 1.855.068.667.201 1.284.403 1.852.201.568.487 1.045.856 1.428.37.383.854.575 1.459.575 1.107 0 2.066-.693 2.87-2.079.806-1.386 1.484-3.256 2.04-5.608.552-2.356 1.015-5.06 1.384-8.116.37-3.055.663-6.255.88-9.592.22-3.34.377-6.705.48-10.095.099-3.389.183-6.586.25-9.592m22.355-16.079c0 3.072-.553 5.692-1.66 7.865-1.108 2.17-2.47 3.822-4.08 4.958h.202c1.98 0 3.783-.443 5.412-1.326a17.61 17.61 0 0 0 4.407-3.408 28.208 28.208 0 0 0 3.524-4.632 69.815 69.815 0 0 0 2.768-4.96 1.917 1.917 0 0 1 1.762-1.152c.571 0 1.024.201 1.36.602.334.399.502.834.502 1.3 0 .268-.05.519-.15.753a51.322 51.322 0 0 1-3.12 5.836 27.584 27.584 0 0 1-4.232 5.283 20.86 20.86 0 0 1-5.436 3.832c-2.013.987-4.247 1.48-6.695 1.48-1.78 0-3.51-.276-5.188-.829a11.997 11.997 0 0 1-4.43-2.579 7.385 7.385 0 0 1-1.207-1.177 8.033 8.033 0 0 1-.807-1.178c-.068-.065-.102-.133-.102-.2a1.695 1.695 0 0 1-.3-.951c0-.435.151-.834.452-1.201.034-.068.068-.11.102-.125a.479.479 0 0 0 .1-.076c.335-.302.704-.469 1.107-.503h.152c.168 0 .286.019.351.052.034 0 .06.008.076.024.018.018.042.026.076.026.1 0 .217.034.354.099.031.034.065.052.099.052.301.2.555.45.757.75.233.401.503.769.804 1.102.27.269.586.51.955.727.37.216.791.326 1.26.326.84 0 1.678-.25 2.519-.753.838-.5 1.592-1.217 2.265-2.152.67-.935 1.217-2.071 1.636-3.408.42-1.336.629-2.82.629-4.457 0-1.204-.126-2.23-.377-3.082-.252-.852-.571-1.545-.956-2.079-.388-.534-.799-.925-1.236-1.175-.435-.252-.854-.377-1.257-.377-.906 0-1.822.468-2.744 1.404-.924.935-1.838 2.12-2.744 3.556a61.3 61.3 0 0 0-2.695 4.76 178.12 178.12 0 0 1-2.691 5.059c-.068 5.408-.16 10.569-.278 15.477-.118 4.908-.32 9.467-.605 13.674-.285 4.208-.68 8.016-1.183 11.421-.503 3.408-1.192 6.32-2.064 8.74-.872 2.423-1.948 4.284-3.223 5.586-1.275 1.303-2.836 1.954-4.682 1.954-.57 0-1.225-.117-1.964-.35-.738-.234-1.427-.71-2.063-1.427-.639-.719-1.176-1.745-1.61-3.082-.438-1.336-.655-3.12-.655-5.358 0-2.84.35-6.128 1.055-9.869.707-3.74 1.705-7.706 2.996-11.898a162.059 162.059 0 0 1 4.608-12.898 154.67 154.67 0 0 1 5.89-12.874c0-1.167.01-2.319.025-3.455.016-1.136.027-2.238.027-3.306-.438.5-.959.75-1.561.75-.57 0-1.024-.2-1.362-.601-.335-.399-.502-.834-.502-1.303 0-.232.05-.482.152-.75.806-1.837 1.427-3.582 1.861-5.234.438-1.654.765-3.105.982-4.358.22-1.253.346-2.246.377-2.98.034-.735.053-1.12.053-1.152 0-.503.183-.935.552-1.303.37-.367.822-.552 1.36-.552.504 0 .94.175 1.308.526.37.352.555.792.555 1.329v15.378c.773-1.302 1.543-2.59 2.315-3.858a26.305 26.305 0 0 1 2.443-3.408c.856-1 1.778-1.81 2.768-2.428.99-.617 2.09-.927 3.3-.927 1.14 0 2.18.268 3.12.802s1.744 1.269 2.417 2.204c.67.936 1.184 2.045 1.535 3.332.353 1.285.529 2.663.529 4.132"/>
        <path fill="#222" d="M114.848 122.317c-.134.266-.411.818-.83 1.662-.42.843-.96 1.811-1.614 2.902a45.267 45.267 0 0 1-2.29 3.424 22.903 22.903 0 0 1-2.924 3.274 15.986 15.986 0 0 1-3.474 2.456 8.455 8.455 0 0 1-3.93.965c-1.95 0-3.587-.611-4.913-1.834s-2.293-2.76-2.895-4.613c-1.143 1.883-2.502 3.382-4.082 4.489-1.577 1.107-3.157 1.661-4.735 1.661-1.244 0-2.368-.222-3.377-.668a7.294 7.294 0 0 1-2.567-1.886 8.723 8.723 0 0 1-1.638-2.853c-.388-1.092-.579-2.281-.579-3.571 0-2.58.445-4.853 1.334-6.821.89-1.969 2.025-3.612 3.4-4.936 1.379-1.324 2.898-2.314 4.56-2.977 1.663-.66 3.266-.991 4.812-.991 1.04 0 1.997.14 2.872.42.872.282 1.619.589 2.24.919.62.33 1.1.635 1.436.916.335.281.521.438.555.472.37.43.553.877.553 1.339 0 .498-.183.934-.553 1.316-.37.38-.807.57-1.31.57-.537 0-.99-.183-1.36-.547a8.313 8.313 0 0 0-.453-.371 5.863 5.863 0 0 0-.959-.57 7.93 7.93 0 0 0-1.436-.522 7.373 7.373 0 0 0-1.889-.222c-1.04 0-2.148.23-3.324.694-1.177.462-2.251 1.182-3.223 2.157-.975.975-1.79 2.2-2.445 3.672-.655 1.473-.982 3.217-.982 5.234 0 .627.068 1.264.202 1.91.133.644.369 1.23.704 1.762.336.529.789.957 1.36 1.287.571.333 1.276.498 2.117.498.605 0 1.302-.199 2.091-.596.789-.397 1.543-1.009 2.266-1.834.723-.829 1.378-1.87 1.965-3.127.587-1.257.999-2.745 1.234-4.464.068-.464.286-.851.655-1.166.37-.315.807-.472 1.31-.472.47 0 .88.183 1.234.547.354.364.545.777.58 1.238.033.63.102 1.515.201 2.655a16.08 16.08 0 0 0 .681 3.398c.351 1.125.88 2.1 1.585 2.928.708.826 1.68 1.239 2.924 1.239.805 0 1.604-.214 2.393-.645.788-.429 1.561-.999 2.316-1.71a19.512 19.512 0 0 0 2.166-2.431c.69-.91 1.318-1.827 1.89-2.753a37.254 37.254 0 0 0 1.511-2.68c.438-.86.93-1.58 1.232-2.21.167-.363.288-.667.607-.866.32-.199.663-.297 1.033-.297.57 0 1.032.207 1.386.62.35.415.529.85.529 1.315 0 .233-.052.462-.152.694"/>
        <path fill="#222" d="M115.755 120.18c-.202.429-.445.912-.731 1.449-.286.536-.614 1.1-.983 1.69-.302.457-.614.81-.93 1.066-.32.256-.732.382-1.238.382-.569 0-1.025-.139-1.36-.423-.336-.281-.504-.61-.504-.986 0-.132.016-.248.05-.34.034-.094-.005-.254.128-.468 1.06-2.088 1.327-2.398 1.859-3.652.398-.935.883-1.846 1.24-3.023a12.418 12.418 0 0 1-.503-1.57 5.708 5.708 0 0 1-.152-1.326c0-.886.235-1.603.705-2.153.472-.55 1.124-.826 1.966-.826.773 0 1.386.268 1.84.805.453.537.679 1.193.679 1.972a5.7 5.7 0 0 1-.15 1.288c-.102.429-.236.966-.403 1.609.773 1.528 1.544 2.883 2.317 4.065.773 1.18 1.463 2.259 2.068 3.237.603.98 1.099 1.9 1.487 2.757.385.86.579 1.716.579 2.576 0 1.125-.286 2.2-.857 3.219-.572 1.02-1.513 1.876-2.824 2.576.168.026.339.039.506.039h.504c1.916 0 3.68-.349 5.292-1.046a16.946 16.946 0 0 0 4.36-2.715 22.975 22.975 0 0 0 3.452-3.702 35.291 35.291 0 0 0 2.621-4.045c.336-.617.808-.926 1.41-.926.572 0 1.017.162 1.337.482.32.323.48.671.48 1.048 0 .215-.052.416-.152.604-.37.723-.85 1.55-1.437 2.473a26.548 26.548 0 0 1-2.118 2.858 26.517 26.517 0 0 1-2.846 2.878 20.92 20.92 0 0 1-3.605 2.514 20.151 20.151 0 0 1-4.359 1.77c-1.578.442-3.31.664-5.19.664-2.252 0-4.344-.315-6.276-.945-1.932-.632-3.504-1.67-4.713-3.118-.202-.243-.304-.498-.304-.767 0-.402.194-.756.582-1.066a2.082 2.082 0 0 1 1.334-.462c.538 0 .991.147 1.36.442.035.054.153.142.355.263.201.121.445.253.73.403.287.147.622.273 1.008.382.387.106.78.16 1.184.16.808 0 1.487-.134 2.042-.403.553-.268 1-.596 1.335-.986.338-.387.579-.803.731-1.247.152-.441.228-.823.228-1.146 0-.67-.136-1.342-.404-2.013-.27-.669-.613-1.34-1.032-2.011a68.432 68.432 0 0 0-1.36-2.073 21.228 21.228 0 0 1-1.338-2.233"/>
        <path fill="#222" d="M144.185 79.76c-.299 0-.732.325-1.298.977-.566.651-1.132 1.83-1.698 3.534h4.792c-.166-1.405-.407-2.507-.724-3.31-.314-.8-.673-1.202-1.072-1.202zm-4.642 37.49a66.163 66.163 0 0 0 2.72-7.14 90.026 90.026 0 0 0 2.096-7.744c.584-2.607 1.131-5.154 1.347-7.67.509-5.933.275-8.32.275-10.425h-4.792c-.465 2.07-1.246 3.533-2.02 11.202-.309 3.055-.426 6.775-.426 11.152 0 2.44.068 4.486.2 6.142.133 1.653.333 3.149.6 4.484zm10.381-29.472v.552c0 2.039-.148 4.21-.449 6.517a75.103 75.103 0 0 1-1.222 6.89 100.681 100.681 0 0 1-1.747 6.692 97.008 97.008 0 0 1-1.997 6.017c-.683 1.837-1.355 3.433-2.022 4.786-.665 1.353-1.264 2.364-1.797 3.032a30.03 30.03 0 0 0 1.548 4.285c.6 1.322 1.272 2.474 2.022 3.46.748.985 1.555 1.762 2.42 2.33.867.568 1.798.852 2.795.852 1.166 0 2.321-.492 3.471-1.478 1.148-.985 2.212-2.156 3.193-3.508a36.573 36.573 0 0 0 2.596-4.111c.748-1.387 1.29-2.498 1.623-3.335.332-.8.914-1.201 1.747-1.201.566 0 1.023.2 1.373.602.348.401.522.834.522 1.303a1.8 1.8 0 0 1-.148.701c-.101.235-.343.77-.724 1.604a41.259 41.259 0 0 1-1.498 2.906 51.347 51.347 0 0 1-2.147 3.486 21.21 21.21 0 0 1-2.744 3.331 15.951 15.951 0 0 1-3.271 2.508 7.311 7.311 0 0 1-3.692 1.001c-2.297 0-4.36-.75-6.191-2.255-1.83-1.504-3.385-3.608-4.668-6.316-1.28-2.706-2.253-5.915-2.918-9.622-.667-3.71-.999-7.771-.999-12.182 0-1.103.016-2.398.05-3.884.033-1.486.1-3.058.2-4.71.1-1.656.248-3.36.448-5.115.2-1.755.468-3.467.8-5.138l.849-3.507a23.222 23.222 0 0 1 1.173-3.31c.45-1.001.963-1.87 1.547-2.604.582-.736 1.23-1.314 1.947-1.731a4.617 4.617 0 0 1 2.37-.626c.831 0 1.556.209 2.17.626.616.417 1.14.995 1.574 1.73.434.736.774 1.604 1.023 2.605.25 1.003.441 2.106.574 3.31l.2 3.507z"/>
        <path fill="#222" d="M164.452 127.789c1.044-.433 2-.98 2.857-1.645a11.804 11.804 0 0 0 2.202-2.192 10.035 10.035 0 0 0 1.416-2.515 7.388 7.388 0 0 0 .505-2.663c0-.997-.252-1.751-.758-2.267-.505-.515-1.097-.772-1.77-.772-.91 0-1.687.25-2.326.746-.642.5-1.166 1.148-1.568 1.943a9.989 9.989 0 0 0-.887 2.666c-.184.979-.279 1.95-.279 2.914 0 .596.06 1.228.179 1.891.116.666.26 1.295.429 1.894m1.518 3.238a7.811 7.811 0 0 0 2.731 2.315c1.113.58 2.479.87 4.1.87 1.652 0 3.151-.388 4.501-1.167 1.35-.783 2.581-1.803 3.694-3.065a24.542 24.542 0 0 0 2.984-4.233 62.253 62.253 0 0 0 2.379-4.683c.168-.365.405-.64.707-.821.303-.184.64-.275 1.01-.275.574 0 1.04.2 1.393.599.355.398.531.828.531 1.295 0 .165-.016.305-.05.422-.034.117-.084.24-.153.376-2.326 5.046-4.865 8.848-7.614 11.405-2.747 2.557-5.86 3.868-9.333 3.935-2.226 0-4.149-.425-5.767-1.272-1.618-.844-2.952-1.94-3.997-3.287a13.768 13.768 0 0 1-2.328-4.557 17.69 17.69 0 0 1-.758-5.08c0-1.694.21-3.253.631-4.683.424-1.427 1.03-2.673 1.821-3.735.795-1.062 1.74-1.891 2.834-2.49 1.097-.598 2.302-.896 3.618-.896a5.98 5.98 0 0 1 2.302.471 6.624 6.624 0 0 1 2.05 1.347 6.643 6.643 0 0 1 1.465 2.117c.371.829.558 1.777.558 2.839 0 1.36-.237 2.64-.708 3.834a12.914 12.914 0 0 1-1.95 3.339 16.55 16.55 0 0 1-2.96 2.839 21.8 21.8 0 0 1-3.691 2.24"/>
        <g transform="translate(185 63)">
            <mask id="b" fill="#fff">
                <use xlink:href="#a"/>
            </mask>
            <path fill="#222" d="M4.225 39.231c0 2.127.05 4.173.152 6.133.1 1.96.233 3.84.403 5.635 1.407-2.694 2.75-5.56 4.024-8.601a105.489 105.489 0 0 0 3.37-9.224c.974-3.11 1.754-6.2 2.34-9.276.586-3.073.882-6.008.882-8.798 0-3.924-.32-6.732-.958-8.428-.636-1.696-1.492-2.541-2.564-2.541-.707 0-1.385.48-2.039 1.444-.654.965-1.266 2.277-1.837 3.939-.57 1.662-1.09 3.623-1.56 5.884a90.38 90.38 0 0 0-1.182 7.279c-.32 2.593-.57 5.303-.754 8.127a128.44 128.44 0 0 0-.277 8.427m25.207 20.045c-.37.763-.83 1.67-1.385 2.718a52.134 52.134 0 0 1-1.886 3.265 38.63 38.63 0 0 1-2.363 3.366 21.319 21.319 0 0 1-2.844 2.992 14.53 14.53 0 0 1-3.271 2.142 8.505 8.505 0 0 1-3.698.825c-2.012 0-3.739-.618-5.18-1.847-1.443-1.229-2.667-2.842-3.675-4.836-1.004-1.994-1.818-4.263-2.438-6.807a69.215 69.215 0 0 1-1.434-7.777 96.83 96.83 0 0 1-.68-7.704 142.133 142.133 0 0 1-.176-6.63c0-2.793.092-5.685.275-8.677.185-2.99.479-5.918.882-8.775a84.852 84.852 0 0 1 1.533-8.127c.623-2.56 1.36-4.803 2.214-6.732.855-1.927 1.837-3.457 2.943-4.587C9.356.955 10.615.389 12.023.389c1.107 0 2.106.26 2.993.773.89.516 1.636 1.356 2.24 2.517.605 1.165 1.073 2.677 1.408 4.538.338 1.862.505 4.14.505 6.83 0 3.325-.353 6.758-1.057 10.298a86.558 86.558 0 0 1-2.868 10.694 108.731 108.731 0 0 1-4.276 10.746A158.312 158.312 0 0 1 5.685 57.23c.837 4.222 1.963 7.539 3.37 9.948 1.408 2.411 3.104 3.614 5.082 3.614 1.342 0 2.632-.523 3.873-1.568 1.243-1.048 2.384-2.288 3.422-3.716a37.077 37.077 0 0 0 2.743-4.362c.787-1.48 1.4-2.668 1.837-3.566.167-.332.403-.59.704-.772.3-.184.635-.275 1.004-.275.57 0 1.034.2 1.385.599.353.4.528.848.528 1.346 0 .2-.068.464-.201.798" mask="url(#b)"/>
        </g>
        <path fill="#222" d="M172.374 98.21c-.065.199-1.205.627-4.17.627-.37 0-.608-.008-.655-.008H119.416c-.01 0-.248.008-.62.008-2.963 0-4.103-.428-4.168-.626-.016-.047-.268-1.148 8.629-4.384.092-.036 9.208-3.672 20.243-3.672 11.04 0 20.153 3.636 20.276 3.682 8.863 3.226 8.614 4.327 8.598 4.374m-7.838-5.397c-.377-.152-9.132-3.649-20.227-3.814h-1.616c-10.822.278-19.85 3.662-20.196 3.8-8.904 3.24-9.769 4.689-9.441 5.681.333 1.008 2.266 1.519 5.74 1.519.395 0 .657-.008.66-.008h48.056s.27.008.692.008c3.476 0 5.41-.51 5.74-1.519.33-.992-.535-2.442-9.408-5.667"/>
        <path fill="#222" d="M143.5 98.004l24.637.008c1.084 0 1.85-.066 2.38-.134-.92-.588-2.926-1.627-7.229-3.222-.402-.163-9.147-3.673-19.788-3.673-10.571 0-19.355 3.495-19.723 3.644-4.345 1.619-6.367 2.663-7.295 3.25.53.07 1.301.135 2.38.135l.57-.008H143.5zM168.137 101l-.726-.008-48.549.008c-2.594 0-6.116-.228-6.759-2.212-.559-1.723.925-3.468 10.023-6.845.05-.02 9.33-3.644 20.538-3.943h1.64c11.248.17 20.013 3.71 20.625 3.964 9.053 3.364 10.526 5.1 9.967 6.824-.635 1.978-4.16 2.212-6.759 2.212z"/>
        <path stroke="#70C7B1" stroke-linecap="round" stroke-linejoin="round" stroke-width=".5" d="M217.013 130c-.01.059.98.166.978.177-.01.054-2.49.156-2.511.282-.016.088 4.365.142 4.258.772-.068.397-5.02-.732-5.098-.265-.099.569 5.73.166 5.586 1.014-.032.185-6.047-.974-6.126-.52-.125.724 6.543.794 6.478 1.174-.034.186-6.668-1.808-6.811-.97-.157.917 7.39.391 7.23 1.311-.013.083-7.559-1.465-7.692-.692-.167.974 7.416.942 7.348 1.333-.12.695-7.249-.652-7.267-.544-.052.298 7.64 1.14 7.601 1.379-.029.155-7.945-1.363-7.987-1.132-.008.045 7.872.818 7.77 1.41-.135.8-7.447-.852-7.475-.686-.11.641 7.562.526 7.42 1.347-.148.866-7.379-1.701-7.496-1.022-.123.713 7.416.847 7.333 1.33-.186 1.079-7.336-1.097-7.343-1.06-.152.891 7.071 1.087 7.038 1.277-.07.416-6.9-1.057-6.947-.786-.063.37 6.777.84 6.712 1.218-.154.9-6.582-1.58-6.683-.984-.073.43 6.847.558 6.732 1.22-.044.255-6.25-.727-6.3-.431-.052.308 5.85.842 5.813 1.054-.052.306-4.876-.687-4.989-.038-.036.218 3.672.215 3.596.652-.044.26-3.476-.719-3.512-.504-.01.056 3.072.49 3.061.555-.02.108-1.817-.037-1.82-.021-.02.131.842.129.837.15"/>
    </g>
</svg>
